<?xml version="1.0" ?>
<!-- Uploaded to: SVG Repo, www.svgrepo.com, Generator: SVG Repo Mixer Tools -->
<svg fill="#000000" width="800px" height="800px" viewBox="0 0 32 32" xmlns="http://www.w3.org/2000/svg">
<title/>
<g id="Spatula">
<rect height="3" transform="translate(1.21 18.66) rotate(-45)" width="6.52" x="19.87" y="6.37"/>
<path d="M21.89,12.23a1,1,0,0,1-.71-.29L19.06,9.82a1,1,0,0,1,0-1.42l5.61-5.61a2.5,2.5,0,0,1,3.54,3.54L22.6,11.94A1,1,0,0,1,21.89,12.23Zm-.71-3.12.71.71,4.9-4.91a.49.49,0,0,0-.7-.7Z"/>
<path d="M21.71,9.29a1,1,0,0,0-1.42,0l-8.9,8.9a5,5,0,0,0-6.29.64L3.53,20.4a2.78,2.78,0,0,0-.47,3.28,1,1,0,0,1,.23-.39l2-2a1,1,0,0,1,1.42,1.42l-2,2a1,1,0,0,1-.54.26L6,26.83a1,1,0,0,1,.26-.54l2-2a1,1,0,0,1,1.42,1.42l-2,2a1,1,0,0,1-.39.23,2.76,2.76,0,0,0,3.28-.47l1.57-1.57a5,5,0,0,0,.64-6.29l8.9-8.9A1,1,0,0,0,21.71,9.29Z"/>
</g>
</svg>