<?xml version="1.0" ?>
<!DOCTYPE svg  PUBLIC '-//W3C//DTD SVG 1.1//EN'  'http://www.w3.org/Graphics/SVG/1.1/DTD/svg11.dtd'>
<!-- Uploaded to: SVG Repo, www.svgrepo.com, Generator: SVG Repo Mixer Tools -->
<svg width="800px" height="800px" viewBox="0 0 64 64" enable-background="new 0 0 64 64" id="Layer_1" version="1.1" xml:space="preserve" xmlns="http://www.w3.org/2000/svg" xmlns:xlink="http://www.w3.org/1999/xlink">
<g>
<path d="M41,17.882l-1.242,0.998c-0.027,0.021-0.039,0.053-0.063,0.076l-26.11,21.605h0   c-0.763,0.635-1.453,1.514-2.03,2.469c-0.573,0.958-1.025,1.979-1.228,2.951l-2.444,11.9c-0.003,0.016,0.002,0.03,0,0.046   C7.872,58,7.879,58.069,7.883,58.139c0.003,0.06,0.001,0.119,0.015,0.178c0.014,0.06,0.044,0.111,0.068,0.167   c0.028,0.063,0.054,0.127,0.096,0.185c0.01,0.013,0.012,0.029,0.022,0.042c0.03,0.037,0.071,0.056,0.105,0.087   c0.05,0.048,0.1,0.097,0.158,0.132s0.125,0.058,0.19,0.081c0.043,0.015,0.079,0.043,0.125,0.053c0.016,0.003,0.031-0.002,0.047,0   c0.07,0.011,0.138,0.005,0.207,0.001c0.061-0.003,0.122-0.001,0.182-0.016c0.058-0.014,0.108-0.043,0.162-0.066   c0.065-0.028,0.13-0.055,0.189-0.098c0.013-0.01,0.028-0.012,0.041-0.021l35.975-28.928h0c0.982-0.791,1.496-1.958,1.495-3.126   c0.001-0.72-0.207-1.444-0.607-2.088L41,17.882z M42.422,29.593L19.875,47.655c-0.431,0.346-1.06,0.276-1.405-0.155   c-0.346-0.431-0.276-1.061,0.155-1.405l22.547-18.063c0.431-0.346,1.06-0.276,1.405,0.155   C42.923,28.618,42.854,29.248,42.422,29.593z" fill="#231F20"/>
<path d="M57.679,8.114L57.679,8.114c-0.246-0.308-0.569-0.53-0.908-0.665c-0.339-0.135-0.694-0.19-1.046-0.19   c-1.004,0.008-2.029,0.423-2.943,1.149h0l-10.224,8.22l3.498,4.471l10.282-8.266h0c0.552-0.444,0.994-0.96,1.311-1.511   c0.314-0.552,0.512-1.141,0.515-1.761C58.168,9.07,58.023,8.541,57.679,8.114z" fill="#231F20"/>
</g>
</svg>